<svg xmlns="http://www.w3.org/2000/svg" xmlns:xlink="http://www.w3.org/1999/xlink" aria-hidden="true" role="img" class="iconify iconify--logos" width="31.88" height="32" preserveAspectRatio="xMidYMid meet" viewBox="0 0 256 257"><defs><linearGradient id="IconifyId1813088fe1fbc01fb466" x1="-.828%" x2="57.636%" y1="-7.652%" y2="49.978%"><stop offset="0%" stop-color="#41D1FF"></stop><stop offset="100%" stop-color="#BD34FE"></stop></linearGradient><linearGradient id="IconifyId1813088fe1fbc01fb467" x1="43.376%" x2="50.316%" y1="2.242%" y2="89.03%"><stop offset="0%" stop-color="#FFEA83"></stop><stop offset="8.333%" stop-color="#FFDD35"></stop><stop offset="100%" stop-color="#FFA800"></stop></linearGradient></defs><path fill="url(#IconifyId1813088fe1fbc01fb466)" d="M255.153 37.938L134.897 252.976c-2.483 4.144-8.861 4.553-12.064 1.01L0 37.938c-2.906-4.26-.399-10.954 3.782-12.165l128.487-49.854c4.568-1.768 9.082-1.768 13.65 0l128.488 49.854c4.181 1.211 6.688 7.905 3.782 12.165Z"></path><path fill="url(#IconifyId1813088fe1fbc01fb467)" d="M185.432.063L96.44 17.557l63.168 106.802a6.696 6.696 0 0 0 11.624 0l63.168-106.802L185.432.063ZM130.223 230.287l-42.974-72.639a6.697 6.697 0 0 0-11.624 0l-42.974 72.639a6.697 6.697 0 0 0 5.812 10.218h91.948a6.696 6.696 0 0 0 5.812-10.218Z"></path></svg>